<svg width="20" height="20" viewBox="0 0 20 20" fill="none" xmlns="http://www.w3.org/2000/svg">
<path d="M10 6.10352e-05C4.48 6.10352e-05 0 4.48006 0 10.0001C0 15.5201 4.48 20.0001 10 20.0001H15V18.0001H10C5.66 18.0001 2 14.3401 2 10.0001C2 5.66006 5.66 2.00006 10 2.00006C14.34 2.00006 18 5.66006 18 10.0001V11.4301C18 12.2201 17.29 13.0001 16.5 13.0001C15.71 13.0001 15 12.2201 15 11.4301V10.0001C15 7.24006 12.76 5.00006 10 5.00006C7.24 5.00006 5 7.24006 5 10.0001C5 12.7601 7.24 15.0001 10 15.0001C11.38 15.0001 12.64 14.4401 13.54 13.5301C14.19 14.4201 15.31 15.0001 16.5 15.0001C18.47 15.0001 20 13.4001 20 11.4301V10.0001C20 4.48006 15.52 6.10352e-05 10 6.10352e-05ZM10 13.0001C8.34 13.0001 7 11.6601 7 10.0001C7 8.34006 8.34 7.00006 10 7.00006C11.66 7.00006 13 8.34006 13 10.0001C13 11.6601 11.66 13.0001 10 13.0001Z" fill="black"/>
</svg>
